PathFileType	4	(X/Y/Z)	34_1_47_p1_0-622.trc
DataRate	CameraRate	NumFrames	NumMarkers	Units	OrigDataRate	OrigDataStartFrame	OrigNumFrames
59.0	59.0	7	27	m	59.0	233	623
Frame#	Time	RHip			RKnee			RAnkle			RBigToe			RSmallToe			RHeel			LHip			LKnee			LAnkle			LBigToe			LSmallToe			LHeel			Neck			Head			Nose			RShoulder			RElbow			RWrist			RThumb			RIndex			RPinky			LShoulder			LElbow			LWrist			LThumb			LIndex			LPinky			
		X1	Y1	Z1	X2	Y2	Z2	X3	Y3	Z3	X4	Y4	Z4	X5	Y5	Z5	X6	Y6	Z6	X7	Y7	Z7	X8	Y8	Z8	X9	Y9	Z9	X10	Y10	Z10	X11	Y11	Z11	X12	Y12	Z12	X13	Y13	Z13	X14	Y14	Z14	X15	Y15	Z15	X16	Y16	Z16	X17	Y17	Z17	X18	Y18	Z18	X19	Y19	Z19	X20	Y20	Z20	X21	Y21	Z21	X22	Y22	Z22	X23	Y23	Z23	X24	Y24	Z24	X25	Y25	Z25	X26	Y26	Z26	X27	Y27	Z27	
233	3.9491525423728815	0.38673974681187556	0.5654870225988327	0.9313914405582119	0.39109980628730184	0.6278904327585475	1.3599252050775055	0.3738439891196688	0.7483729680620079	1.7483860936264497	0.3491591536554375	0.5826649275981995	1.7938829282049262	0.4129762340980162	0.5849995118340043	1.7883392770687716	0.343678322269483	0.8578035474884277	1.824868300929209	0.17469670337073526	0.5090611965157902	0.9467037343974959	0.15856161563048643	0.621638074262523	1.3595061665656738	0.15887717770416646	0.7351789304206466	1.74099832927039	0.1927952094012489	0.5603289949579979	1.773436135884255	0.134212371799237	0.6139895055746138	1.7872953375788214	0.1583306089037597	0.8205831831163378	1.8011453620706805	0.3237330704457857	0.33792087298380835	0.4537492582091903	0.4469273766574846	0.20413480415172205	0.2398583310177959	0.4157074222627103	0.16064218876250388	0.38998051652120913	0.45989589394511693	0.44430180964484034	0.48861272221741253	0.48826775834469177	0.505267659494452	0.7190343134256403	0.5252775149248498	0.2554985716622273	0.6823769441520496	0.4927322698784516	0.1696201852380124	0.646518458525119	0.5254658575852971	0.18253332595360686	0.679275071738754	0.5470417842364982	0.13651365281804148	0.7221566176849693	0.17161554340558696	0.29139881929135003	0.4782200228999206	0.13233274337980744	0.24648319080441813	0.7216695933415054	0.27737797484929266	0.11734900807575423	0.6423447864493216	0.35973547464329436	0.08552277326210389	0.6216098591373355	0.3968692516594928	0.021602040677832578	0.6227315251481553	0.37740536622478854	0.029860804092904737	0.6680670082873154
234	3.9661016949152543	0.38683072230331567	0.5654229556716273	0.931277914026429	0.39170039173205734	0.630679647738734	1.372933638640889	0.3743096742393326	0.7467557199099609	1.7521308490240604	0.34905073548432686	0.5820815938117557	1.7937096410325684	0.4127937743354363	0.5848072672407486	1.788215720697057	0.34372192274247315	0.8577068306776906	1.8249460052462856	0.1745377528360931	0.509800496578567	0.9430446547007693	0.15773486932904043	0.6230712214703468	1.3638890165073798	0.15799544458110057	0.7319289516307355	1.7350906036793763	0.19276169372045762	0.5605181751968633	1.7734349520813475	0.13303231129329043	0.6157750406131612	1.7912020940560165	0.14731818665443627	0.8321277984975429	1.8010665811818	0.32797526918483855	0.32493707305382535	0.45402123428439556	0.45051549666137075	0.21421556628269509	0.23834296718696482	0.42358951576952897	0.17161271493667615	0.38547348299339057	0.4638390421441608	0.4295358158510809	0.493477225960084	0.48352396876373266	0.5232008404546936	0.705237364452909	0.533935216359614	0.2806366853227973	0.6900808236325923	0.5124488418014205	0.18672684540093282	0.6718323649677069	0.5293108736411142	0.19337709234210876	0.6884487377016136	0.5415875993196093	0.13879418608348001	0.7352117330917977	0.17588063689202152	0.29307314849935057	0.47822688131719215	0.13421538969341074	0.23742288168239542	0.7214211731284049	0.28502912515382006	0.11912847287293495	0.6522835204117242	0.3715077213075945	0.08632303330913454	0.6256608130748812	0.4011890815327185	0.023809714940946285	0.62664825652074	0.378229951592272	0.02975750171795694	0.6789911301375403
235	3.983050847457627	0.3869270222078607	0.5653443782539406	0.9312224384368701	0.3918301252792365	0.6306420129755794	1.373114761561263	0.374292930064788	0.7465970273707959	1.7521526536894103	0.3532929174787123	0.5661579306976879	1.787353305962596	0.4124892529509064	0.5843448868707679	1.7879642901128185	0.3436173854223506	0.8572246040130901	1.8252457909592852	0.17959861554368806	0.49604897411898874	0.9411817093811485	0.1577993221971636	0.6231747049360061	1.364026042791844	0.15688899200225975	0.7335281879325809	1.7397412312416305	0.19273124344181924	0.5604141228276758	1.7732909864383377	0.13301543388058854	0.6157098879805872	1.7911359414519716	0.15211478873380724	0.8151385392510335	1.800192502235888	0.3323643216929311	0.32579033318481637	0.45373335699397516	0.4504629756374475	0.2121715540516977	0.23520328899597812	0.4351789676648873	0.19445825677262396	0.3869828264134561	0.4680485927398761	0.44116339552267897	0.4930450197280011	0.48352175327490465	0.520592491862727	0.7077780760350781	0.5404482854485414	0.3246867428448976	0.7062205457386943	0.5026048326658153	0.2202886874178125	0.6868116729171945	0.530900560218628	0.1994946339002302	0.7053388636871042	0.5346679000858824	0.2041594024156288	0.7536046785018025	0.17885513472634035	0.3048290507537045	0.47771138941050845	0.13235304382640706	0.2626408252192131	0.7332327579672331	0.288643980988985	0.1234944279671179	0.673054520526041	0.38621115487951835	0.07659061661633342	0.6428047878004925	0.40909355709764167	0.03447304290734321	0.6453421448656754	0.3895261880761635	0.04150594936880936	0.7015279986757077
236	4.0	0.39065212547577743	0.5515045807546433	0.9256561168970882	0.3963600498566789	0.6318538205135787	1.3734617388471437	0.37062358885712865	0.7294645734316147	1.751041739870089	0.35313378305340226	0.5666945489265691	1.7870180792239434	0.41229478189095337	0.5849884013418809	1.7879401479596297	0.3439683617085033	0.8552088918498174	1.8299802700520054	0.1794062362450886	0.49655015610923336	0.9374745506652661	0.15857321902189897	0.626146270921184	1.369349284603893	0.15688732667785849	0.7335575499116589	1.7398881767115608	0.19272566655170925	0.5603281652212452	1.7731870097120495	0.13306219957971838	0.6157269980860234	1.7912091307942297	0.15309535368314087	0.8183017938568637	1.805611559615288	0.3405415481567807	0.3138836396450607	0.4542299729431382	0.45084558833266536	0.21406867148628725	0.23818858586642433	0.44342451806070954	0.20578885884687975	0.3826580658071811	0.47104764046383857	0.4249697330864951	0.49803010598266945	0.48123493391684913	0.5060578881483032	0.6877593371472714	0.5333774645771117	0.3505954386293647	0.7074513707473996	0.5083245219956795	0.2099617449369955	0.7040190409511129	0.5240375156037966	0.20338715434709737	0.7136871924976309	0.5327035462143206	0.22725427203738569	0.7788627979211669	0.18753300298927375	0.3101819645053392	0.48088086019587917	0.13696329070477406	0.2642585865286964	0.7296012858074408	0.29332933601831046	0.1289723964378099	0.6870760495224649	0.39389526397788793	0.06774877723036851	0.670645605891644	0.40861210502041256	0.03870593767214912	0.6757592859027525	0.38330481531155014	0.08013474863387147	0.729819335643323
237	4.016949152542373	0.3910618676395899	0.5503545807763409	0.9297736462437735	0.39685270473481604	0.6302065871188922	1.377373993169923	0.3746708069149506	0.7448469520115891	1.7561653329307776	0.3531905597253905	0.5668962321714648	1.7871275729141451	0.4123919421993321	0.5851737457204472	1.788099961450895	0.3438642155849494	0.8549921454239157	1.8302958595110728	0.1885290786450851	0.48355047393676276	0.9359787488982673	0.1586370742179543	0.6259883610705334	1.3693149838333953	0.15875435398627244	0.7351510992294915	1.741032780613469	0.19270577717854206	0.5602110000545348	1.7731338629262268	0.13304107022322428	0.6156257369167402	1.7911168542402942	0.14827001284549635	0.8358233227256808	1.806465694796494	0.3368812854414295	0.32670900115063806	0.453715752336441	0.45870369877841344	0.2267250166255538	0.23960267260834453	0.4512526474407175	0.2179889634878398	0.3849235597442484	0.4716869308666623	0.4303902444569404	0.5009499232369958	0.48081635160241604	0.49454076097843386	0.6764297478422534	0.5331742005701984	0.3273794540006333	0.7103083189667656	0.5165000639143902	0.21413533668437149	0.7175799654819265	0.5375019542188783	0.20977988588919974	0.7327860469091051	0.5346637695337028	0.24202618122986258	0.7905058458192921	0.19076538247894725	0.32192803566482225	0.48400531101366917	0.13927298381247946	0.2768242811589151	0.7337596850021	0.3014145112640391	0.1425728614951983	0.694087241950565	0.3943223649654282	0.06782276205629006	0.6787077235853612	0.4088695542603317	0.040615606237211666	0.6869866352350403	0.371535746398598	0.10501003694797323	0.7559626413137465
238	4.033898305084746	0.3871233760451865	0.5374459148241288	0.9283791366822657	0.3971095942102454	0.6300534933239983	1.3776745524205958	0.3714935278500059	0.7323377619185407	1.7569116109998673	0.3532785386634235	0.5669055450836591	1.7871871893550408	0.41234244795763286	0.5849773495256825	1.7880961139291203	0.3437097149336532	0.8546521567268538	1.8311969730530069	0.18856625940526794	0.483558095970674	0.9358078515789972	0.1586793926282102	0.6259883881893821	1.3697746582639847	0.15771120575801809	0.736745617218591	1.7456292034394028	0.197561276449788	0.5455532350353717	1.767268153803615	0.1333131272483134	0.6148723052450221	1.7909784160020323	0.1483505204438888	0.8357647527322725	1.806369318082926	0.34513678850705326	0.3151449215817971	0.45383974805891025	0.4619130228219076	0.21534994794562334	0.24422536798783828	0.4516406092471686	0.2170437171483736	0.3817407941724228	0.464985976972022	0.454963297274656	0.4978302491498749	0.47522705460821846	0.5051661607434876	0.6646011741267253	0.5309751001598234	0.3666502884063614	0.7122102490818482	0.514258772617498	0.21316104095976451	0.7272897375345342	0.5399443250707895	0.21193014637951815	0.742743250924059	0.5301533002198187	0.2784573631854391	0.7976664321555343	0.19793392025730025	0.3215973096389872	0.483677557636459	0.1415229920078969	0.2867217405461181	0.7305991181709056	0.3063966939641224	0.14552413991116525	0.7007803158820456	0.40352072421045	0.0813421926169459	0.6958257785485743	0.4097328417331674	0.0549742482288412	0.729110690755948	0.3684217405352544	0.11798990124192457	0.7680223175015218
239	4.0508474576271185	0.3918839048017033	0.5519346318248252	0.9374844587942909	0.4011233610174847	0.6144246582590209	1.3735905968091835	0.37155830374909293	0.7325434405237251	1.7571172477510963	0.3529050931558508	0.5664551928121596	1.7867863340359562	0.4121306502392033	0.5830544675764706	1.791081695469999	0.34273254844652495	0.8568534439880382	1.8366272184710504	0.18350504791375072	0.49732459137603635	0.9375721367205961	0.15881160222356258	0.6262355891805477	1.3699574049603196	0.1577827937031085	0.7369213692598255	1.74562159838576	0.1975605155043055	0.5456923215566122	1.7673140634398372	0.13325335018813173	0.614980143716634	1.7909160349310813	0.14724183838154212	0.8374392646568183	1.8121318949849827	0.3486004876645899	0.32660025343959276	0.4532139247293954	0.4626751566044238	0.21655387978711088	0.25085070777816	0.4579977835992494	0.21584046439406998	0.38494732372487317	0.4768934602637856	0.45754661177002676	0.5119487764556298	0.4817291651951804	0.5157551608733101	0.6792255985676808	0.5399392738145834	0.3826536680838379	0.7195560191240483	0.5177020148608462	0.2246946149787577	0.7456610341446196	0.5414217484557677	0.23615891529105637	0.756199184621803	0.5293613301307796	0.2979342219608865	0.8057952106031794	0.19798031849304387	0.3220962170248744	0.49083734816277147	0.1412563016925122	0.2849403899822042	0.7274588919280911	0.3177180026540364	0.1559006840444804	0.7115222867684537	0.4005840998574299	0.108655936665189	0.7385534522566578	0.4077433420299204	0.06791046883845703	0.7480194094219734	0.37533512519022316	0.12541672883872215	0.7969353499116754
